<svg width="89" height="89" viewBox="0 0 89 89" fill="none" xmlns="http://www.w3.org/2000/svg">
<g clip-path="url(#clip0_572_7398)">
<path d="M47.0226 50.8395C48.7348 50.1685 50.1104 48.8447 50.8467 47.1596C51.5831 45.4744 51.6199 43.5657 50.9491 41.8533C49.5621 38.293 34.8796 19.8463 34.8796 19.8463C34.8796 19.8463 36.6411 43.3527 38.0364 46.913C38.7075 48.6252 40.0312 50.0008 41.7164 50.7372C43.4016 51.4735 45.3102 51.5103 47.0226 50.8395Z" fill="#BD4125"/>
<path d="M44.4998 20.8046C44.8677 20.8046 45.2205 20.6585 45.4806 20.3984C45.7407 20.1383 45.8868 19.7855 45.8868 19.4176V13.8698C45.8868 13.5019 45.7407 13.1491 45.4806 12.889C45.2205 12.6289 44.8677 12.4828 44.4998 12.4828C44.132 12.4828 43.7792 12.6289 43.5191 12.889C43.259 13.1491 43.1129 13.5019 43.1129 13.8698V19.4176C43.1129 19.7855 43.259 20.1383 43.5191 20.3984C43.7792 20.6585 44.132 20.8046 44.4998 20.8046Z" fill="#AF6E00"/>
<path d="M62.1532 28.1165C62.521 28.1165 62.8738 27.9703 63.1338 27.7102L67.0562 23.7878C67.1886 23.6599 67.2943 23.5068 67.367 23.3376C67.4397 23.1684 67.4779 22.9864 67.4795 22.8022C67.4811 22.6181 67.446 22.4354 67.3763 22.265C67.3066 22.0945 67.2036 21.9397 67.0734 21.8094C66.9431 21.6792 66.7883 21.5762 66.6178 21.5065C66.4474 21.4367 66.2647 21.4017 66.0806 21.4033C65.8964 21.4049 65.7144 21.4431 65.5452 21.5158C65.376 21.5885 65.2229 21.6942 65.095 21.8266L61.1726 25.749C60.9787 25.943 60.8467 26.1901 60.7932 26.4591C60.7397 26.7281 60.7671 27.0069 60.8721 27.2603C60.9771 27.5137 61.1548 27.7303 61.3828 27.8827C61.6108 28.0351 61.8789 28.1165 62.1532 28.1165Z" fill="#AF6E00"/>
<path d="M69.4654 45.77H75.0133C75.3811 45.77 75.7339 45.6239 75.994 45.3637C76.2541 45.1036 76.4003 44.7509 76.4003 44.383C76.4003 44.0152 76.2541 43.6624 75.994 43.4023C75.7339 43.1422 75.3811 42.996 75.0133 42.996H69.4654C69.0976 42.996 68.7448 43.1422 68.4847 43.4023C68.2246 43.6624 68.0784 44.0152 68.0784 44.383C68.0784 44.7509 68.2246 45.1036 68.4847 45.3637C68.7448 45.6239 69.0976 45.77 69.4654 45.77Z" fill="#AF6E00"/>
<path d="M25.8658 27.7102C26.1274 27.9628 26.4777 28.1026 26.8414 28.0994C27.2051 28.0963 27.5529 27.9504 27.8101 27.6933C28.0672 27.4361 28.2131 27.0882 28.2163 26.7246C28.2194 26.3609 28.0796 26.0106 27.827 25.749L23.9046 21.8266C23.7767 21.6942 23.6236 21.5885 23.4544 21.5158C23.2852 21.4431 23.1032 21.4049 22.919 21.4033C22.7349 21.4017 22.5522 21.4367 22.3818 21.5065C22.2113 21.5762 22.0565 21.6792 21.9263 21.8094C21.796 21.9397 21.693 22.0945 21.6233 22.265C21.5536 22.4354 21.5185 22.6181 21.5201 22.8022C21.5217 22.9864 21.5599 23.1684 21.6326 23.3376C21.7053 23.5068 21.811 23.6599 21.9434 23.7878L25.8658 27.7102Z" fill="#AF6E00"/>
<path d="M13.9863 45.77H19.5342C19.9021 45.77 20.2549 45.6239 20.515 45.3637C20.7751 45.1036 20.9212 44.7509 20.9212 44.383C20.9212 44.0152 20.7751 43.6624 20.515 43.4023C20.2549 43.1422 19.9021 42.996 19.5342 42.996H13.9863C13.6185 42.996 13.2657 43.1422 13.0056 43.4023C12.7455 43.6624 12.5994 44.0152 12.5994 44.383C12.5994 44.7509 12.7455 45.1036 13.0056 45.3637C13.2657 45.6239 13.6185 45.77 13.9863 45.77Z" fill="#AF6E00"/>
<path d="M44.4999 2.7739C36.2704 2.7739 28.2257 5.21423 21.3831 9.7863C14.5405 14.3584 9.20737 20.8568 6.05807 28.4599C2.90878 36.063 2.08478 44.4292 3.69027 52.5006C5.29577 60.572 9.25866 67.986 15.0778 73.8052C20.897 79.6243 28.311 83.5872 36.3824 85.1927C44.4538 86.7982 52.82 85.9742 60.4231 82.8249C68.0261 79.6756 74.5246 74.3425 79.0967 67.4999C83.6687 60.6573 86.1091 52.6126 86.1091 44.3831C86.0966 33.3515 81.7088 22.7752 73.9083 14.9747C66.1077 7.17419 55.5315 2.78638 44.4999 2.7739ZM44.4999 5.54784C50.923 5.54674 57.246 7.13907 62.9024 10.1822C68.5589 13.2252 73.3721 17.624 76.9107 22.9844C80.4494 28.3448 82.603 34.4993 83.1786 40.8965C83.7542 47.2937 82.7338 53.7338 80.2089 59.6398H8.79094C6.266 53.7338 5.24562 47.2937 5.82123 40.8965C6.39684 34.4993 8.55046 28.3448 12.0891 22.9844C15.6278 17.624 20.441 13.2252 26.0974 10.1822C31.7539 7.13907 38.0769 5.54674 44.4999 5.54784Z" fill="#353740"/>
</g>
<defs>
<clipPath id="clip0_572_7398">
<rect width="88.7662" height="88.7662" fill="white" transform="translate(0.116882)"/>
</clipPath>
</defs>
</svg>
