<svg width="89" height="89" viewBox="0 0 89 89" fill="none" xmlns="http://www.w3.org/2000/svg">
<g clip-path="url(#clip0_572_7392)">
<path d="M87.3103 43.6896L66.5057 7.6283C66.2575 7.19973 65.7998 6.93481 65.3046 6.93481H23.6954C23.2003 6.93481 22.7412 7.19973 22.4943 7.6283L1.68974 43.6896C1.44147 44.1181 1.44147 44.6466 1.68974 45.0752L22.4943 81.1364C22.7412 81.5664 23.2003 81.8313 23.6954 81.8313H65.3046C65.7998 81.8313 66.2575 81.5664 66.5057 81.1378L87.3103 45.0765C87.5586 44.6466 87.5586 44.1195 87.3103 43.6896ZM44.5 59.6398C36.088 59.6398 29.2433 52.795 29.2433 44.3831C29.2433 35.9711 36.088 29.1264 44.5 29.1264C52.912 29.1264 59.7567 35.9711 59.7567 44.3831C59.7567 52.795 52.912 59.6398 44.5 59.6398Z" fill="#353740"/>
</g>
<defs>
<clipPath id="clip0_572_7392">
<rect width="88.7662" height="88.7662" fill="white" transform="translate(0.116943)"/>
</clipPath>
</defs>
</svg>
