<svg xmlns="http://www.w3.org/2000/svg" xmlns:xlink="http://www.w3.org/1999/xlink" width="410" zoomAndPan="magnify" viewBox="0 0 307.5 412.499996" height="550" preserveAspectRatio="xMidYMid meet" version="1.0"><defs><g/><clipPath id="396f36763f"><path d="M 0 0.0859375 L 307 0.0859375 L 307 411.914062 L 0 411.914062 Z M 0 0.0859375 " clip-rule="nonzero"/></clipPath><clipPath id="f06c064e8d"><path d="M 95.796875 109.519531 L 244.804688 109.519531 L 244.804688 319.929688 L 95.796875 319.929688 Z M 95.796875 109.519531 " clip-rule="nonzero"/></clipPath><clipPath id="8cc9196579"><path d="M 30.699219 37.367188 L 205.871094 37.367188 L 205.871094 269.914062 L 30.699219 269.914062 Z M 30.699219 37.367188 " clip-rule="nonzero"/></clipPath><clipPath id="709560a661"><path d="M 30.699219 37.367188 L 205.867188 37.367188 L 205.867188 269.910156 L 30.699219 269.910156 Z M 30.699219 37.367188 " clip-rule="nonzero"/></clipPath><clipPath id="c93f48522c"><path d="M 145.203125 226.652344 L 287.472656 226.652344 L 287.472656 368.921875 L 145.203125 368.921875 Z M 145.203125 226.652344 " clip-rule="nonzero"/></clipPath><clipPath id="32dc93ad47"><path d="M 199 283 L 272 283 L 272 294.871094 L 199 294.871094 Z M 199 283 " clip-rule="nonzero"/></clipPath><clipPath id="ec72660388"><path d="M 59 168 L 179.683594 168 L 179.683594 206 L 59 206 Z M 59 168 " clip-rule="nonzero"/></clipPath></defs><g clip-path="url(#396f36763f)"><path fill="#ffffff" d="M 0 0.0859375 L 307 0.0859375 L 307 411.914062 L 0 411.914062 Z M 0 0.0859375 " fill-opacity="1" fill-rule="nonzero"/><path fill="#ffffff" d="M 0 0.0859375 L 307 0.0859375 L 307 411.914062 L 0 411.914062 Z M 0 0.0859375 " fill-opacity="1" fill-rule="nonzero"/></g><g clip-path="url(#f06c064e8d)"><path fill="#f1bc0d" d="M 243.761719 319.539062 L 97.140625 319.539062 C 96.402344 319.539062 95.804688 318.941406 95.804688 318.203125 L 95.804688 110.855469 C 95.804688 110.117188 96.402344 109.519531 97.140625 109.519531 L 243.761719 109.519531 C 244.5 109.519531 245.097656 110.117188 245.097656 110.855469 L 245.097656 318.203125 C 245.097656 318.941406 244.5 319.539062 243.761719 319.539062 Z M 98.480469 316.867188 L 242.421875 316.867188 L 242.421875 112.195312 L 98.480469 112.195312 Z M 98.480469 316.867188 " fill-opacity="1" fill-rule="nonzero"/></g><g clip-path="url(#8cc9196579)"><path fill="#ffffff" d="M 30.699219 37.367188 L 205.871094 37.367188 L 205.871094 270.015625 L 30.699219 270.015625 Z M 30.699219 37.367188 " fill-opacity="1" fill-rule="nonzero"/></g><g clip-path="url(#709560a661)"><path stroke-linecap="butt" transform="matrix(0.748782, 0, 0, 0.748782, 30.700994, 37.366221)" fill="none" stroke-linejoin="miter" d="M -0.00237085 0.00129117 L 233.934713 0.00129117 L 233.934713 310.562774 L -0.00237085 310.562774 Z M -0.00237085 0.00129117 " stroke="#85586f" stroke-width="8" stroke-opacity="1" stroke-miterlimit="4"/></g><path fill="#ffffff" d="M 146.152344 227.601562 L 286.328125 227.601562 L 286.328125 367.777344 L 146.152344 367.777344 Z M 146.152344 227.601562 " fill-opacity="1" fill-rule="nonzero"/><g clip-path="url(#c93f48522c)"><path fill="#85586f" d="M 286.328125 368.722656 L 146.152344 368.722656 C 145.621094 368.722656 145.203125 368.304688 145.203125 367.777344 L 145.203125 227.601562 C 145.203125 227.070312 145.621094 226.652344 146.152344 226.652344 L 286.328125 226.652344 C 286.855469 226.652344 287.273438 227.070312 287.273438 227.601562 L 287.273438 367.777344 C 287.273438 368.304688 286.855469 368.722656 286.328125 368.722656 Z M 147.097656 366.828125 L 285.378906 366.828125 L 285.378906 228.546875 L 147.097656 228.546875 Z M 147.097656 366.828125 " fill-opacity="1" fill-rule="nonzero"/></g><path fill="#85586f" d="M 163.542969 284.660156 C 164.796875 284.429688 166.394531 284.089844 168.164062 283.691406 L 160.75 283.746094 L 173.582031 282.433594 L 174.664062 282.207031 L 167.363281 282.265625 L 181.167969 280.722656 L 181.964844 280.554688 L 174.722656 280.609375 L 187.039062 279.527344 C 187.324219 279.46875 187.554688 279.414062 187.839844 279.355469 L 180.882812 279.242188 L 190.746094 278.5 L 186.984375 278.15625 L 198.789062 277.644531 C 214.070312 275.820312 230.496094 276.445312 241.503906 285.058594 C 239.960938 284.316406 238.480469 283.574219 236.941406 283.003906 L 224.164062 283.121094 L 235.285156 282.378906 L 221.484375 281.921875 L 231.523438 281.179688 L 216.351562 280.894531 L 226.847656 280.097656 C 226.675781 280.039062 226.503906 280.039062 226.332031 279.984375 L 212.589844 279.867188 L 221.085938 279.242188 C 212.589844 278.441406 203.921875 279.296875 195.195312 281.007812 C 196.277344 283.917969 199.074219 285.914062 203.75 286.941406 C 190.175781 287.738281 178.65625 283.003906 163.542969 284.660156 Z M 163.542969 284.660156 " fill-opacity="1" fill-rule="evenodd"/><g clip-path="url(#32dc93ad47)"><path fill="#85586f" d="M 253.992188 289.5625 L 248.347656 290.53125 L 255.929688 290.476562 C 256.386719 290.761719 256.785156 291.046875 257.183594 291.332031 L 245.722656 292.757812 L 258.441406 292.644531 C 258.726562 292.984375 258.894531 293.328125 259.125 293.726562 C 258.839844 291.730469 258.554688 291.332031 257.699219 290.363281 C 262.375 291.046875 267.050781 292.585938 271.726562 294.808594 C 258.210938 280.609375 221.65625 289.335938 199.53125 283.691406 C 200.441406 285.058594 203.066406 286.257812 206.773438 287.28125 L 199.1875 287.796875 L 208.824219 287.796875 C 209.453125 287.96875 210.136719 288.082031 210.820312 288.253906 L 204.890625 288.9375 L 214.640625 288.992188 C 214.925781 289.050781 215.269531 289.105469 215.554688 289.164062 L 210.136719 289.960938 L 219.832031 289.847656 C 220.171875 289.90625 220.574219 289.960938 220.972656 290.019531 L 215.269531 290.703125 L 225.304688 290.589844 C 230.496094 291.273438 235.972656 291.84375 241.21875 292.300781 C 242.929688 290.132812 246.121094 288.652344 249.773438 288.652344 C 251.3125 288.878906 252.738281 289.164062 253.992188 289.5625 Z M 253.992188 289.5625 " fill-opacity="1" fill-rule="evenodd"/></g><path fill="#85586f" d="M 176.203125 288.421875 L 164.285156 289.222656 L 174.949219 289.390625 C 173.753906 290.476562 173.011719 291.84375 172.839844 293.328125 C 174.4375 290.648438 178.257812 288.765625 182.707031 288.765625 C 187.152344 288.765625 190.976562 290.648438 192.570312 293.328125 C 192.117188 289.5625 187.894531 286.65625 182.707031 286.65625 C 181.679688 286.65625 180.652344 286.769531 179.683594 286.996094 L 169.589844 287.683594 L 176.773438 288.082031 C 176.546875 288.195312 176.375 288.308594 176.203125 288.421875 Z M 176.203125 288.421875 " fill-opacity="1" fill-rule="evenodd"/><g fill="#f1bc0d" fill-opacity="1"><g transform="translate(185.943246, 306.84581)"><g><path d="M 1.621094 0 L 10.96875 0 C 11.0625 0 11.125 -0.0625 11.125 -0.160156 L 11.125 -1.429688 C 11.125 -1.527344 11.0625 -1.589844 10.96875 -1.589844 L 1.90625 -1.589844 C 1.734375 -1.589844 1.589844 -1.734375 1.589844 -1.90625 L 1.589844 -6.039062 C 1.589844 -6.214844 1.734375 -6.359375 1.90625 -6.359375 L 10.96875 -6.359375 C 11.0625 -6.359375 11.125 -6.421875 11.125 -6.515625 L 11.125 -7.789062 C 11.125 -7.882812 11.0625 -7.949219 10.96875 -7.949219 L 1.621094 -7.949219 C 0.683594 -7.949219 0 -7.265625 0 -6.328125 L 0 -1.621094 C 0 -0.683594 0.683594 0 1.621094 0 Z M 1.621094 0 "/></g></g></g><g fill="#f1bc0d" fill-opacity="1"><g transform="translate(200.247831, 306.84581)"><g><path d="M 0.160156 0 L 1.429688 0 C 1.527344 0 1.589844 -0.0625 1.589844 -0.160156 L 1.589844 -3.179688 L 9.535156 -3.179688 L 9.535156 -0.160156 C 9.535156 -0.0625 9.601562 0 9.695312 0 L 10.96875 0 C 11.0625 0 11.125 -0.0625 11.125 -0.160156 L 11.125 -6.328125 C 11.125 -7.265625 10.441406 -7.949219 9.503906 -7.949219 L 1.621094 -7.949219 C 0.683594 -7.949219 0 -7.265625 0 -6.328125 L 0 -0.160156 C 0 -0.0625 0.0625 0 0.160156 0 Z M 1.589844 -4.769531 L 1.589844 -6.039062 C 1.589844 -6.214844 1.734375 -6.359375 1.90625 -6.359375 L 9.21875 -6.359375 C 9.394531 -6.359375 9.535156 -6.214844 9.535156 -6.039062 L 9.535156 -4.769531 Z M 1.589844 -4.769531 "/></g></g></g><g fill="#f1bc0d" fill-opacity="1"><g transform="translate(214.552417, 306.84581)"><g><path d="M 0.160156 0 L 1.429688 0 C 1.527344 0 1.589844 -0.0625 1.589844 -0.160156 L 1.589844 -3.179688 L 7.597656 -3.179688 L 8.710938 0 L 10.457031 0 L 9.347656 -3.179688 L 9.503906 -3.179688 C 10.441406 -3.179688 11.125 -3.863281 11.125 -4.800781 L 11.125 -6.328125 C 11.125 -7.265625 10.441406 -7.949219 9.503906 -7.949219 L 0.160156 -7.949219 C 0.0625 -7.949219 0 -7.882812 0 -7.789062 L 0 -0.160156 C 0 -0.0625 0.0625 0 0.160156 0 Z M 1.589844 -4.769531 L 1.589844 -6.359375 L 9.21875 -6.359375 C 9.394531 -6.359375 9.535156 -6.214844 9.535156 -6.039062 L 9.535156 -5.085938 C 9.535156 -4.910156 9.394531 -4.769531 9.21875 -4.769531 Z M 1.589844 -4.769531 "/></g></g></g><g fill="#f1bc0d" fill-opacity="1"><g transform="translate(228.857003, 306.84581)"><g><path d="M 0.160156 0 L 1.429688 0 C 1.527344 0 1.589844 -0.0625 1.589844 -0.160156 L 1.589844 -7.789062 C 1.589844 -7.882812 1.527344 -7.949219 1.429688 -7.949219 L 0.160156 -7.949219 C 0.0625 -7.949219 0 -7.882812 0 -7.789062 L 0 -0.160156 C 0 -0.0625 0.0625 0 0.160156 0 Z M 0.160156 0 "/></g></g></g><g fill="#f1bc0d" fill-opacity="1"><g transform="translate(233.625485, 306.84581)"><g><path d="M 0.191406 0 L 1.574219 0 C 1.636719 0 1.699219 -0.046875 1.714844 -0.09375 L 2.796875 -3.179688 L 8.519531 -3.179688 L 9.601562 -0.09375 C 9.617188 -0.046875 9.679688 0 9.742188 0 L 11.125 0 C 11.253906 0 11.347656 -0.109375 11.300781 -0.238281 L 9.996094 -3.972656 L 11.300781 -7.710938 C 11.347656 -7.835938 11.253906 -7.949219 11.125 -7.949219 L 9.742188 -7.949219 C 9.679688 -7.949219 9.617188 -7.898438 9.601562 -7.851562 L 8.519531 -4.769531 L 2.796875 -4.769531 L 1.714844 -7.851562 C 1.699219 -7.898438 1.636719 -7.949219 1.574219 -7.949219 L 0.191406 -7.949219 C 0.0625 -7.949219 -0.03125 -7.835938 0.015625 -7.710938 L 1.320312 -3.972656 L 0.015625 -0.238281 C -0.03125 -0.109375 0.0625 0 0.191406 0 Z M 0.191406 0 "/></g></g></g><g fill="#85586f" fill-opacity="1"><g transform="translate(177.613968, 316.932708)"><g><path d="M 2.625 -0.4375 L 0.96875 -0.4375 C 0.925781 -0.4375 0.90625 -0.457031 0.90625 -0.5 L 0.90625 -3.578125 C 0.90625 -3.617188 0.925781 -3.640625 0.96875 -3.640625 L 2.625 -3.640625 L 2.625 -4.078125 L 1.1875 -4.078125 C 0.78125 -4.078125 0.53125 -3.953125 0.4375 -3.703125 C 0.40625 -3.609375 0.390625 -3.492188 0.390625 -3.359375 L 0.390625 -0.71875 C 0.390625 -0.34375 0.539062 -0.113281 0.84375 -0.03125 C 0.9375 -0.0078125 1.050781 0 1.1875 0 L 2.625 0 Z M 2.625 -0.4375 "/></g></g></g><g fill="#85586f" fill-opacity="1"><g transform="translate(184.323445, 316.932708)"><g><path d="M 3.296875 0 L 2.296875 -4.078125 L 1.765625 -4.09375 C 1.503906 -4.09375 1.332031 -4.039062 1.25 -3.9375 C 1.1875 -3.851562 1.125 -3.707031 1.0625 -3.5 L 0.078125 0 L 0.546875 0 L 0.828125 -1.078125 L 2.53125 -1.078125 L 2.8125 0 Z M 1.515625 -3.59375 C 1.535156 -3.632812 1.5625 -3.65625 1.59375 -3.65625 L 1.921875 -3.65625 L 2.453125 -1.5 L 0.953125 -1.5 Z M 1.515625 -3.59375 "/></g></g></g><g fill="#85586f" fill-opacity="1"><g transform="translate(191.643223, 316.932708)"><g><path d="M 0.96875 0 L 0.96875 -1.671875 L 2 -1.671875 C 2.050781 -1.671875 2.085938 -1.648438 2.109375 -1.609375 L 2.65625 0 L 3.15625 0 L 2.6875 -1.34375 C 2.625 -1.519531 2.550781 -1.644531 2.46875 -1.71875 C 2.84375 -1.800781 3.03125 -2.050781 3.03125 -2.46875 L 3.03125 -3.328125 C 3.03125 -3.847656 2.75 -4.109375 2.1875 -4.109375 L 0.46875 -4.078125 L 0.46875 0 Z M 2.453125 -3.671875 C 2.492188 -3.660156 2.519531 -3.632812 2.53125 -3.59375 L 2.53125 -2.171875 C 2.519531 -2.117188 2.492188 -2.09375 2.453125 -2.09375 L 0.96875 -2.09375 L 0.96875 -3.671875 Z M 2.453125 -3.671875 "/></g></g></g><g fill="#85586f" fill-opacity="1"><g transform="translate(198.988697, 316.932708)"><g/></g></g><g fill="#85586f" fill-opacity="1"><g transform="translate(204.220604, 316.932708)"><g><path d="M 0.875 -2.28125 C 0.820312 -2.28125 0.796875 -2.300781 0.796875 -2.34375 L 0.796875 -3.578125 C 0.796875 -3.617188 0.820312 -3.644531 0.875 -3.65625 L 2.671875 -3.65625 L 2.671875 -4.078125 L 1.15625 -4.109375 C 0.664062 -4.109375 0.378906 -3.910156 0.296875 -3.515625 C 0.285156 -3.453125 0.28125 -3.382812 0.28125 -3.3125 L 0.28125 -2.5625 C 0.28125 -2.164062 0.457031 -1.929688 0.8125 -1.859375 C 0.90625 -1.835938 1.007812 -1.828125 1.125 -1.828125 L 2.203125 -1.828125 C 2.253906 -1.816406 2.28125 -1.789062 2.28125 -1.75 L 2.28125 -0.5 C 2.269531 -0.457031 2.242188 -0.4375 2.203125 -0.4375 L 0.328125 -0.4375 L 0.328125 0 L 1.9375 0.03125 C 2.5 0.03125 2.78125 -0.234375 2.78125 -0.765625 L 2.78125 -1.515625 C 2.78125 -2.015625 2.492188 -2.269531 1.921875 -2.28125 Z M 0.875 -2.28125 "/></g></g></g><g fill="#85586f" fill-opacity="1"><g transform="translate(211.206322, 316.932708)"><g><path d="M 2.734375 0 L 2.734375 -0.4375 L 0.953125 -0.4375 L 0.953125 -1.859375 L 2.59375 -1.859375 L 2.59375 -2.28125 L 0.953125 -2.28125 L 0.953125 -3.65625 L 2.703125 -3.65625 L 2.703125 -4.078125 L 0.46875 -4.078125 L 0.46875 0 Z M 2.734375 0 "/></g></g></g><g fill="#85586f" fill-opacity="1"><g transform="translate(218.102101, 316.932708)"><g><path d="M 0.96875 0 L 0.96875 -1.671875 L 2 -1.671875 C 2.050781 -1.671875 2.085938 -1.648438 2.109375 -1.609375 L 2.65625 0 L 3.15625 0 L 2.6875 -1.34375 C 2.625 -1.519531 2.550781 -1.644531 2.46875 -1.71875 C 2.84375 -1.800781 3.03125 -2.050781 3.03125 -2.46875 L 3.03125 -3.328125 C 3.03125 -3.847656 2.75 -4.109375 2.1875 -4.109375 L 0.46875 -4.078125 L 0.46875 0 Z M 2.453125 -3.671875 C 2.492188 -3.660156 2.519531 -3.632812 2.53125 -3.59375 L 2.53125 -2.171875 C 2.519531 -2.117188 2.492188 -2.09375 2.453125 -2.09375 L 0.96875 -2.09375 L 0.96875 -3.671875 Z M 2.453125 -3.671875 "/></g></g></g><g fill="#85586f" fill-opacity="1"><g transform="translate(225.447576, 316.932708)"><g><path d="M 2.28125 -0.609375 L 3.234375 -4.078125 L 2.765625 -4.078125 L 1.8125 -0.484375 C 1.789062 -0.453125 1.769531 -0.4375 1.75 -0.4375 L 1.453125 -0.4375 L 0.546875 -4.078125 L 0.0625 -4.078125 L 1.078125 0 L 1.59375 0 C 1.84375 0.0078125 2.007812 -0.03125 2.09375 -0.125 C 2.15625 -0.207031 2.21875 -0.367188 2.28125 -0.609375 Z M 2.28125 -0.609375 "/></g></g></g><g fill="#85586f" fill-opacity="1"><g transform="translate(232.683839, 316.932708)"><g><path d="M 1.046875 0 L 1.046875 -4.078125 L 0.546875 -4.078125 L 0.546875 0 Z M 1.046875 0 "/></g></g></g><g fill="#85586f" fill-opacity="1"><g transform="translate(238.224111, 316.932708)"><g><path d="M 2.625 -0.4375 L 0.96875 -0.4375 C 0.925781 -0.4375 0.90625 -0.457031 0.90625 -0.5 L 0.90625 -3.578125 C 0.90625 -3.617188 0.925781 -3.640625 0.96875 -3.640625 L 2.625 -3.640625 L 2.625 -4.078125 L 1.1875 -4.078125 C 0.78125 -4.078125 0.53125 -3.953125 0.4375 -3.703125 C 0.40625 -3.609375 0.390625 -3.492188 0.390625 -3.359375 L 0.390625 -0.71875 C 0.390625 -0.34375 0.539062 -0.113281 0.84375 -0.03125 C 0.9375 -0.0078125 1.050781 0 1.1875 0 L 2.625 0 Z M 2.625 -0.4375 "/></g></g></g><g fill="#85586f" fill-opacity="1"><g transform="translate(244.933591, 316.932708)"><g><path d="M 2.734375 0 L 2.734375 -0.4375 L 0.953125 -0.4375 L 0.953125 -1.859375 L 2.59375 -1.859375 L 2.59375 -2.28125 L 0.953125 -2.28125 L 0.953125 -3.65625 L 2.703125 -3.65625 L 2.703125 -4.078125 L 0.46875 -4.078125 L 0.46875 0 Z M 2.734375 0 "/></g></g></g><g fill="#85586f" fill-opacity="1"><g transform="translate(251.829373, 316.932708)"><g><path d="M 0.875 -2.28125 C 0.820312 -2.28125 0.796875 -2.300781 0.796875 -2.34375 L 0.796875 -3.578125 C 0.796875 -3.617188 0.820312 -3.644531 0.875 -3.65625 L 2.671875 -3.65625 L 2.671875 -4.078125 L 1.15625 -4.109375 C 0.664062 -4.109375 0.378906 -3.910156 0.296875 -3.515625 C 0.285156 -3.453125 0.28125 -3.382812 0.28125 -3.3125 L 0.28125 -2.5625 C 0.28125 -2.164062 0.457031 -1.929688 0.8125 -1.859375 C 0.90625 -1.835938 1.007812 -1.828125 1.125 -1.828125 L 2.203125 -1.828125 C 2.253906 -1.816406 2.28125 -1.789062 2.28125 -1.75 L 2.28125 -0.5 C 2.269531 -0.457031 2.242188 -0.4375 2.203125 -0.4375 L 0.328125 -0.4375 L 0.328125 0 L 1.9375 0.03125 C 2.5 0.03125 2.78125 -0.234375 2.78125 -0.765625 L 2.78125 -1.515625 C 2.78125 -2.015625 2.492188 -2.269531 1.921875 -2.28125 Z M 0.875 -2.28125 "/></g></g></g><path fill="#85586f" d="M 71.164062 178.828125 C 70.472656 178.949219 70.023438 178.5 69.777344 177.398438 C 69.695312 176.953125 69.53125 176.339844 69.371094 175.605469 C 69.207031 174.871094 69.003906 173.933594 68.757812 172.832031 C 68.636719 171.648438 68.472656 170.179688 68.226562 168.34375 C 67.980469 166.546875 67.65625 164.386719 67.289062 161.855469 L 67.410156 160.753906 L 66.390625 160.957031 C 65.453125 161.164062 64.882812 160.589844 64.636719 159.328125 C 64.351562 157.941406 64.675781 157.164062 65.617188 156.960938 C 65.859375 156.917969 66.269531 156.675781 66.921875 156.265625 C 66.878906 156.144531 66.878906 156.023438 66.878906 155.816406 C 66.878906 155.65625 66.878906 155.410156 66.878906 155.207031 C 66.878906 154.960938 66.878906 154.757812 66.878906 154.59375 C 66.878906 154.429688 66.839844 154.269531 66.839844 154.144531 C 66.757812 153.125 66.675781 151.820312 66.554688 150.148438 C 66.472656 148.476562 66.351562 146.515625 66.226562 144.191406 C 66.269531 143.210938 66.308594 142.027344 66.308594 140.640625 C 66.351562 139.253906 66.351562 137.621094 66.308594 135.785156 L 65.820312 130.320312 L 65.574219 123.792969 C 65.574219 122.363281 66.023438 121.546875 66.878906 121.386719 C 67.820312 121.179688 68.390625 121.671875 68.59375 122.730469 C 68.714844 123.382812 68.839844 124.28125 68.921875 125.546875 C 69.003906 126.769531 69.082031 128.28125 69.164062 130.074219 C 69.164062 130.6875 69.164062 131.378906 69.164062 132.238281 C 69.164062 133.09375 69.164062 134.113281 69.246094 135.296875 C 69.164062 137.296875 69.207031 140.109375 69.328125 143.742188 L 69.777344 153.902344 L 69.816406 154.59375 L 69.898438 155.492188 L 71.652344 154.878906 L 81.527344 153.777344 L 83.402344 153.289062 L 85.035156 152.882812 L 84.953125 147.210938 C 84.871094 146.191406 84.75 144.84375 84.546875 143.046875 C 84.382812 141.292969 84.179688 139.171875 83.976562 136.683594 C 84.015625 135.664062 84.015625 134.359375 84.054688 132.808594 C 84.054688 131.257812 83.976562 129.421875 83.8125 127.300781 L 83.320312 120.488281 C 83.199219 119.058594 83.609375 118.285156 84.464844 118.082031 C 85.484375 117.875 86.015625 118.53125 86.054688 120.078125 L 86.179688 120.160156 L 86.585938 127.015625 L 88.257812 152.066406 C 88.585938 151.984375 88.910156 152.023438 89.15625 152.148438 C 89.847656 152.023438 90.296875 152.472656 90.542969 153.574219 C 90.871094 155.125 90.582031 155.980469 89.726562 156.183594 C 89.6875 156.183594 89.523438 156.226562 89.238281 156.265625 C 88.992188 156.308594 88.707031 156.429688 88.378906 156.632812 C 88.378906 156.878906 88.707031 160.386719 89.441406 167.121094 C 89.441406 167.648438 89.441406 168.34375 89.441406 169.199219 C 89.441406 170.058594 89.480469 171.035156 89.441406 172.179688 C 89.441406 173.726562 89.074219 174.585938 88.339844 174.75 C 87.402344 174.953125 86.910156 174.21875 86.832031 172.625 C 86.585938 170.914062 86.382812 168.792969 86.136719 166.179688 C 85.890625 163.570312 85.648438 160.589844 85.402344 157.164062 L 83.769531 157.574219 L 82.058594 158.019531 L 79.894531 158.386719 L 77.976562 158.675781 C 77.40625 158.796875 76.46875 158.835938 75.121094 158.796875 C 74.507812 158.796875 73.980469 158.835938 73.53125 158.835938 C 73.039062 158.878906 72.632812 158.917969 72.226562 159 C 71.9375 159.042969 71.328125 159.410156 70.347656 160.019531 C 70.308594 159.898438 70.308594 159.9375 70.308594 160.0625 C 70.308594 160.222656 70.308594 160.511719 70.347656 160.917969 C 70.511719 164.386719 70.960938 167.976562 71.734375 171.6875 C 71.9375 172.789062 72.144531 173.6875 72.304688 174.421875 C 72.46875 175.15625 72.511719 175.644531 72.511719 175.972656 C 72.632812 177.6875 72.183594 178.625 71.164062 178.828125 Z M 71.164062 178.828125 " fill-opacity="1" fill-rule="nonzero"/><path fill="#85586f" d="M 70.917969 180.949219 C 70.347656 180.949219 69.777344 180.785156 69.289062 180.460938 C 68.511719 179.929688 67.980469 179.03125 67.695312 177.808594 C 67.613281 177.359375 67.492188 176.789062 67.289062 176.09375 C 67.085938 175.320312 66.878906 174.382812 66.675781 173.28125 L 66.636719 173.074219 C 66.511719 171.933594 66.351562 170.464844 66.105469 168.667969 C 65.902344 167.078125 65.617188 165.203125 65.289062 163.082031 C 64.839844 163 64.472656 162.792969 64.1875 162.632812 C 63.332031 162.058594 62.761719 161.121094 62.515625 159.816406 C 61.945312 157.042969 63.207031 155.574219 64.71875 155.082031 C 64.71875 154.921875 64.71875 154.796875 64.71875 154.675781 L 64.675781 154.351562 C 64.597656 153.328125 64.515625 151.984375 64.390625 150.3125 C 64.308594 148.636719 64.1875 146.640625 64.066406 144.3125 L 64.066406 144.148438 C 64.105469 143.210938 64.148438 142.027344 64.148438 140.683594 C 64.1875 139.335938 64.1875 137.746094 64.148438 135.949219 L 63.65625 130.566406 L 63.414062 123.957031 C 63.453125 120.367188 65.535156 119.589844 66.390625 119.386719 C 68.105469 119.019531 70.0625 119.835938 70.59375 122.40625 C 70.757812 123.097656 70.878906 124.117188 70.960938 125.464844 C 71.082031 126.730469 71.164062 128.28125 71.207031 130.117188 C 71.207031 130.808594 71.207031 131.503906 71.207031 132.359375 C 71.207031 133.175781 71.207031 134.15625 71.285156 135.257812 L 71.285156 135.417969 C 71.207031 137.378906 71.246094 140.152344 71.367188 143.703125 L 71.777344 152.800781 L 81.117188 151.78125 L 82.875 151.332031 L 82.832031 147.414062 C 82.75 146.433594 82.628906 145.089844 82.464844 143.375 C 82.300781 141.621094 82.097656 139.457031 81.894531 136.96875 L 81.894531 136.726562 C 81.933594 135.707031 81.933594 134.441406 81.976562 132.890625 C 81.976562 131.378906 81.894531 129.585938 81.730469 127.585938 L 81.242188 120.734375 C 80.957031 117.0625 83.320312 116.285156 84.054688 116.121094 C 85.078125 115.917969 86.054688 116.121094 86.789062 116.734375 C 87.566406 117.386719 87.890625 118.285156 88.054688 119.019531 L 88.09375 119.058594 L 88.257812 120.203125 L 88.667969 127.054688 L 90.214844 150.3125 C 91.238281 150.597656 92.214844 151.492188 92.582031 153.328125 C 93.277344 156.796875 91.605469 157.898438 90.582031 158.265625 C 90.707031 159.652344 90.992188 162.304688 91.480469 167.078125 L 91.480469 167.324219 C 91.480469 167.855469 91.480469 168.507812 91.480469 169.28125 C 91.523438 170.136719 91.523438 171.15625 91.480469 172.300781 C 91.523438 175.808594 89.769531 176.707031 88.707031 176.910156 C 87.769531 177.113281 86.871094 176.910156 86.136719 176.339844 C 85.238281 175.644531 84.789062 174.542969 84.667969 172.914062 C 84.421875 171.199219 84.21875 169.117188 83.976562 166.464844 C 83.8125 164.507812 83.609375 162.347656 83.445312 159.898438 L 82.34375 160.183594 L 78.222656 160.835938 C 77.570312 160.957031 76.507812 161 75 161 C 74.507812 161 74.019531 161 73.613281 161.039062 C 73.285156 161.082031 72.960938 161.121094 72.671875 161.164062 C 72.632812 161.203125 72.550781 161.246094 72.386719 161.285156 C 72.550781 164.507812 73 167.894531 73.695312 171.402344 L 74.265625 174.136719 C 74.46875 175.15625 74.507812 175.644531 74.507812 175.972656 C 74.875 180.011719 72.304688 180.867188 71.53125 181.03125 C 71.367188 180.949219 71.125 180.949219 70.917969 180.949219 Z M 88.992188 173.199219 Z M 68.0625 158.019531 C 67.574219 158.347656 67.207031 158.59375 66.878906 158.753906 L 68.1875 158.511719 L 68.1875 158.386719 L 68.105469 158.429688 Z M 70.105469 157.652344 L 69.207031 157.980469 L 69.695312 157.898438 C 69.859375 157.816406 69.980469 157.734375 70.105469 157.652344 Z M 75.082031 156.675781 C 76.710938 156.714844 77.324219 156.632812 77.527344 156.59375 L 81.609375 155.941406 L 83.078125 155.574219 L 81.773438 155.859375 L 74.46875 156.675781 C 74.671875 156.675781 74.875 156.675781 75.082031 156.675781 Z M 87.277344 154.472656 L 87.320312 154.796875 C 87.726562 154.554688 88.136719 154.390625 88.503906 154.269531 C 88.503906 154.226562 88.503906 154.1875 88.503906 154.144531 L 87.199219 154.390625 L 87.199219 154.472656 Z M 89.15625 154.144531 Z M 66.511719 122.976562 Z M 66.511719 122.976562 " fill-opacity="1" fill-rule="nonzero"/><path fill="#85586f" d="M 103.476562 171.402344 C 101.640625 171.769531 99.925781 171.363281 98.375 170.179688 C 96.949219 169.078125 96.089844 167.691406 95.722656 166.019531 C 95.113281 162.917969 95.847656 159.328125 97.925781 155.207031 C 98.785156 153.492188 99.761719 151.902344 100.824219 150.472656 C 101.925781 149.046875 103.109375 147.742188 104.332031 146.515625 C 104.578125 146.273438 104.984375 146.109375 105.476562 146.027344 C 107.148438 145.699219 108.046875 145.90625 108.207031 146.71875 C 108.25 146.964844 108.125 147.25 107.839844 147.617188 L 107.839844 147.699219 C 108.941406 148.71875 110.085938 149.820312 111.1875 150.964844 C 112.328125 152.105469 113.0625 153.574219 113.429688 155.371094 C 113.714844 156.878906 113.632812 158.46875 113.1875 160.183594 C 112.738281 161.898438 111.960938 163.570312 110.941406 165.160156 C 109.921875 166.792969 108.738281 168.140625 107.390625 169.242188 C 106.210938 170.421875 104.863281 171.117188 103.476562 171.402344 Z M 103.027344 168.710938 C 104.453125 168.34375 105.882812 167.445312 107.269531 166.019531 C 108.65625 164.550781 109.757812 162.917969 110.617188 161.082031 C 111.472656 159.246094 111.796875 157.574219 111.554688 156.105469 C 111.226562 153.820312 109.554688 151.535156 106.535156 149.210938 C 104.414062 151.492188 102.660156 154.0625 101.230469 156.839844 C 99.558594 160.222656 98.988281 163.121094 99.476562 165.488281 C 100.007812 167.976562 101.191406 169.078125 103.027344 168.710938 Z M 103.027344 168.710938 " fill-opacity="1" fill-rule="nonzero"/><path fill="#85586f" d="M 102.171875 173.648438 C 100.375 173.648438 98.660156 173.035156 97.113281 171.851562 C 95.277344 170.464844 94.132812 168.628906 93.683594 166.464844 C 92.949219 162.875 93.765625 158.796875 96.089844 154.269531 C 96.988281 152.472656 98.007812 150.757812 99.191406 149.210938 C 100.335938 147.699219 101.597656 146.3125 102.90625 145.046875 C 103.476562 144.515625 104.210938 144.191406 105.109375 143.988281 C 106.210938 143.78125 107.800781 143.578125 109.023438 144.394531 C 109.71875 144.84375 110.167969 145.539062 110.328125 146.351562 C 110.371094 146.640625 110.410156 146.882812 110.371094 147.167969 C 111.144531 147.902344 111.960938 148.71875 112.777344 149.535156 C 114.207031 150.964844 115.144531 152.839844 115.59375 155.003906 C 115.960938 156.796875 115.878906 158.753906 115.308594 160.796875 C 114.777344 162.714844 113.960938 164.589844 112.820312 166.386719 C 111.675781 168.179688 110.328125 169.730469 108.859375 170.953125 C 107.269531 172.300781 105.554688 173.117188 103.84375 173.484375 C 103.3125 173.566406 102.742188 173.648438 102.171875 173.648438 Z M 106.738281 152.105469 C 105.351562 153.859375 104.128906 155.738281 103.109375 157.734375 C 101.679688 160.671875 101.152344 163.121094 101.519531 164.996094 C 101.84375 166.671875 102.253906 166.671875 102.539062 166.589844 C 103.558594 166.34375 104.617188 165.609375 105.71875 164.46875 C 106.945312 163.203125 107.921875 161.734375 108.699219 160.101562 C 109.351562 158.632812 109.636719 157.367188 109.472656 156.347656 C 109.269531 155.042969 108.332031 153.617188 106.738281 152.105469 Z M 106.738281 152.105469 " fill-opacity="1" fill-rule="nonzero"/><path fill="#85586f" d="M 139.335938 164.835938 C 137.664062 165.160156 136.074219 164.386719 134.523438 162.46875 C 134.113281 161.898438 133.664062 161.164062 133.257812 160.265625 C 132.851562 159.367188 132.359375 158.308594 131.910156 157.082031 C 131.175781 155.125 130.6875 154.226562 130.441406 154.308594 C 129.707031 154.59375 128.933594 155.449219 128.117188 156.960938 L 123.058594 165.976562 C 122.691406 166.546875 122.285156 166.875 121.835938 166.957031 C 121.101562 167.121094 120.527344 166.671875 120.121094 165.691406 C 119.957031 165.242188 119.835938 164.753906 119.671875 164.222656 C 119.550781 163.691406 119.386719 163.082031 119.265625 162.46875 C 118.53125 158.796875 118.039062 154.226562 117.835938 148.800781 C 117.796875 147.984375 118.164062 147.453125 118.980469 147.292969 C 119.714844 147.128906 120.203125 147.453125 120.367188 148.269531 C 120.570312 149.535156 120.816406 151.085938 121.058594 152.839844 C 121.34375 154.636719 121.671875 156.675781 122.078125 158.960938 C 122.203125 159.042969 122.324219 159.082031 122.445312 159.082031 C 124.121094 158.753906 126.769531 154.269531 130.441406 145.660156 C 130.648438 145.25 131.097656 145.007812 131.707031 144.84375 C 133.136719 144.558594 133.871094 145.046875 133.910156 146.394531 C 133.828125 150.390625 133.953125 153.207031 134.277344 154.960938 C 134.480469 155.980469 134.972656 157.285156 135.789062 158.878906 C 136.847656 160.835938 137.828125 161.691406 138.765625 161.53125 C 140.847656 161.121094 142.519531 157.613281 143.742188 151.085938 C 144.027344 149.289062 144.109375 147.453125 143.988281 145.617188 C 143.253906 145.292969 142.722656 144.355469 142.4375 142.804688 C 142.109375 141.253906 142.476562 140.355469 143.539062 140.152344 C 144.109375 140.03125 144.886719 140.191406 145.824219 140.601562 C 146.761719 141.007812 147.578125 141.703125 148.269531 142.640625 L 148.351562 142.640625 C 148.597656 143.007812 148.761719 143.414062 148.84375 143.78125 C 149.046875 144.761719 148.800781 145.375 148.148438 145.617188 L 147.007812 145.660156 C 146.84375 146.351562 146.640625 147.292969 146.394531 148.476562 C 146.148438 149.65625 145.863281 151.125 145.578125 152.882812 C 144.601562 160.222656 142.476562 164.222656 139.335938 164.835938 Z M 139.335938 164.835938 " fill-opacity="1" fill-rule="nonzero"/><path fill="#85586f" d="M 121.550781 169.078125 C 120.570312 169.078125 119.019531 168.667969 118.164062 166.425781 C 117.957031 165.855469 117.796875 165.324219 117.671875 164.710938 C 117.511719 164.140625 117.386719 163.527344 117.265625 162.835938 C 116.492188 159.042969 116 154.351562 115.796875 148.84375 C 115.675781 147.007812 116.777344 145.578125 118.613281 145.210938 C 120.527344 144.804688 122.078125 145.863281 122.445312 147.820312 C 122.652344 149.210938 122.894531 150.71875 123.179688 152.515625 C 123.304688 153.289062 123.425781 154.105469 123.589844 155.003906 C 124.648438 153.328125 126.242188 150.3125 128.566406 144.84375 L 128.648438 144.679688 C 129.015625 144.027344 129.789062 143.128906 131.339844 142.804688 C 132.726562 142.519531 133.871094 142.722656 134.765625 143.414062 C 135.339844 143.863281 136.03125 144.761719 136.074219 146.351562 C 135.992188 150.230469 136.113281 152.960938 136.398438 154.554688 C 136.523438 155.125 136.847656 156.226562 137.746094 157.941406 C 138.152344 158.675781 138.480469 159.082031 138.683594 159.285156 C 139.214844 158.796875 140.5625 157.042969 141.785156 150.636719 C 141.988281 149.371094 142.070312 148.027344 142.03125 146.640625 C 141.296875 145.863281 140.765625 144.722656 140.4375 143.171875 C 139.785156 139.949219 141.417969 138.398438 143.171875 138.03125 C 144.191406 137.828125 145.335938 137.988281 146.722656 138.601562 C 147.617188 138.96875 148.433594 139.539062 149.128906 140.234375 L 149.292969 140.191406 L 150.148438 141.335938 C 150.554688 141.945312 150.839844 142.601562 150.964844 143.253906 C 151.453125 145.617188 150.230469 147.007812 148.964844 147.496094 L 148.761719 147.578125 C 148.679688 147.945312 148.597656 148.394531 148.515625 148.84375 C 148.269531 150.023438 148.027344 151.453125 147.699219 153.167969 C 146.515625 161.488281 143.945312 166.019531 139.746094 166.832031 C 138.03125 167.199219 135.460938 166.914062 132.890625 163.734375 C 132.320312 162.957031 131.832031 162.140625 131.382812 161.082031 C 130.933594 160.183594 130.484375 159.082031 129.996094 157.859375 C 129.996094 157.898438 129.953125 157.898438 129.953125 157.941406 L 124.855469 167.078125 C 123.996094 168.382812 122.976562 168.792969 122.285156 168.957031 C 122.078125 169.035156 121.835938 169.078125 121.550781 169.078125 Z M 121.140625 160.835938 C 121.222656 161.246094 121.304688 161.613281 121.34375 161.980469 C 121.46875 162.589844 121.589844 163.121094 121.710938 163.609375 C 121.753906 163.691406 121.753906 163.816406 121.792969 163.894531 L 123.425781 160.957031 C 123.261719 161.039062 123.058594 161.082031 122.894531 161.121094 C 122.324219 161.246094 121.671875 161.164062 121.140625 160.835938 Z M 130.363281 152.023438 L 131.300781 152.351562 C 131.542969 152.433594 131.75 152.554688 131.953125 152.757812 C 131.871094 151.414062 131.832031 149.78125 131.832031 147.863281 C 131.097656 149.535156 130.402344 151.003906 129.789062 152.308594 Z M 146.882812 144.355469 Z M 145.046875 143.742188 L 145.292969 143.863281 L 145.335938 143.621094 L 146.394531 143.578125 C 145.988281 143.089844 145.539062 142.722656 145.046875 142.519531 C 144.84375 142.4375 144.679688 142.355469 144.558594 142.3125 C 144.558594 142.3125 144.558594 142.355469 144.558594 142.355469 C 144.761719 143.292969 144.96875 143.660156 145.046875 143.742188 Z M 145.046875 143.742188 " fill-opacity="1" fill-rule="nonzero"/><path fill="#85586f" d="M 159.164062 143.375 C 158.023438 143.621094 157.289062 143.007812 157.003906 141.578125 C 156.960938 141.417969 156.921875 141.210938 156.878906 140.96875 C 156.839844 140.722656 156.796875 140.476562 156.796875 140.152344 C 156.757812 139.335938 156.757812 138.601562 156.796875 137.949219 C 156.839844 137.296875 156.878906 136.886719 156.878906 136.644531 C 157.082031 134.972656 157.492188 133.746094 158.0625 132.929688 C 158.632812 132.113281 159.328125 131.460938 160.0625 130.890625 C 160.835938 130.359375 161.488281 129.625 162.101562 128.730469 C 163.039062 127.75 163.855469 126.769531 164.507812 125.792969 C 165.160156 124.8125 165.773438 123.875 166.222656 123.015625 C 166.753906 121.835938 167.160156 120.734375 167.445312 119.753906 C 167.730469 118.773438 167.773438 117.796875 167.570312 116.898438 C 166.792969 113.144531 165.445312 110.371094 163.449219 108.574219 C 161.449219 106.78125 159.082031 106.167969 156.308594 106.738281 C 155.207031 106.941406 154.066406 108.535156 152.839844 111.390625 C 152.800781 111.714844 152.675781 112.246094 152.554688 113.0625 C 152.433594 113.878906 152.148438 114.898438 151.738281 116.121094 C 151.453125 116.53125 151.167969 116.773438 150.800781 116.855469 C 150.230469 116.980469 149.699219 116.734375 149.210938 116.121094 C 148.71875 115.511719 148.515625 114.898438 148.558594 114.246094 C 148.761719 111.429688 149.332031 109.226562 150.269531 107.597656 C 151.984375 104.617188 153.777344 102.945312 155.535156 102.578125 C 156.1875 102.457031 156.960938 102.332031 157.941406 102.25 C 158.917969 102.167969 160.386719 102.496094 162.304688 103.148438 C 166.507812 104.578125 169.363281 109.023438 170.875 116.53125 C 171.199219 118.976562 170.464844 121.996094 168.628906 125.546875 C 168.222656 126.28125 167.609375 127.21875 166.753906 128.363281 C 165.894531 129.503906 164.835938 130.769531 163.570312 132.238281 C 163.203125 132.5625 162.753906 133.011719 162.222656 133.582031 C 161.695312 134.15625 161.082031 134.972656 160.347656 135.949219 C 160.144531 136.359375 159.980469 136.683594 159.941406 136.96875 C 159.859375 137.253906 159.816406 137.5 159.816406 137.664062 C 159.816406 137.910156 159.941406 139.089844 160.265625 141.171875 C 160.511719 142.476562 160.101562 143.171875 159.164062 143.375 Z M 161.121094 160.878906 C 159.449219 161.203125 158.347656 159.898438 157.777344 156.878906 L 157.777344 156.960938 C 157.613281 155.777344 157.65625 154.675781 157.980469 153.574219 C 158.308594 152.472656 158.796875 151.902344 159.410156 151.738281 C 161.082031 151.414062 162.101562 152.675781 162.550781 155.613281 C 162.957031 158.835938 162.46875 160.589844 161.121094 160.878906 Z M 161.121094 160.878906 " fill-opacity="1" fill-rule="nonzero"/><path fill="#85586f" d="M 160.632812 163.039062 C 159.816406 163.039062 159.042969 162.792969 158.347656 162.347656 C 157.042969 161.449219 156.1875 159.777344 155.695312 157.246094 C 155.492188 155.777344 155.574219 154.347656 155.980469 153.003906 C 156.675781 150.636719 158.023438 149.902344 159 149.699219 C 160.183594 149.453125 161.285156 149.65625 162.222656 150.3125 C 163.488281 151.207031 164.304688 152.839844 164.632812 155.328125 C 165.203125 159.855469 164.140625 162.386719 161.488281 162.917969 C 161.203125 163 160.917969 163.039062 160.632812 163.039062 Z M 160.675781 158.835938 Z M 159.859375 156.632812 C 160.0625 157.734375 160.347656 158.347656 160.511719 158.59375 C 160.59375 158.183594 160.675781 157.367188 160.46875 155.859375 C 160.347656 154.960938 160.183594 154.429688 160.019531 154.105469 C 160.019531 154.105469 160.019531 154.144531 160.019531 154.144531 C 159.777344 154.960938 159.734375 155.777344 159.859375 156.632812 Z M 159.816406 153.777344 Z M 160.265625 153.617188 Z M 158.757812 145.496094 C 157.207031 145.496094 155.492188 144.597656 154.960938 141.945312 L 154.839844 141.335938 C 154.757812 140.96875 154.71875 140.558594 154.71875 140.109375 C 154.675781 139.335938 154.675781 138.480469 154.71875 137.746094 C 154.757812 137.132812 154.800781 136.726562 154.800781 136.480469 L 154.800781 136.316406 C 155.042969 134.277344 155.574219 132.726562 156.347656 131.625 C 157.082031 130.644531 157.898438 129.789062 158.839844 129.136719 C 159.367188 128.730469 159.898438 128.199219 160.347656 127.503906 L 160.59375 127.21875 C 161.449219 126.320312 162.183594 125.464844 162.796875 124.566406 C 163.40625 123.671875 163.9375 122.8125 164.386719 122.039062 C 164.875 120.976562 165.242188 120 165.488281 119.140625 C 165.691406 118.488281 165.691406 117.875 165.609375 117.265625 C 164.957031 114 163.773438 111.59375 162.144531 110.085938 C 160.632812 108.738281 158.960938 108.332031 156.839844 108.738281 C 156.878906 108.738281 156.144531 109.1875 154.960938 111.960938 C 154.921875 112.289062 154.839844 112.777344 154.71875 113.390625 C 154.554688 114.328125 154.269531 115.429688 153.820312 116.773438 L 153.574219 117.265625 C 152.839844 118.367188 151.941406 118.773438 151.332031 118.898438 C 150.554688 119.058594 149.003906 119.058594 147.699219 117.429688 C 146.882812 116.40625 146.515625 115.265625 146.597656 114.082031 C 146.84375 110.980469 147.496094 108.453125 148.597656 106.535156 C 150.679688 102.945312 152.882812 100.988281 155.289062 100.496094 C 156.023438 100.332031 156.878906 100.253906 157.941406 100.171875 C 159.246094 100.089844 160.960938 100.414062 163.164062 101.191406 C 168.058594 102.863281 171.402344 107.921875 173.078125 116.121094 L 173.117188 116.285156 C 173.484375 119.183594 172.710938 122.527344 170.667969 126.527344 C 170.21875 127.421875 169.527344 128.402344 168.628906 129.625 C 167.773438 130.769531 166.671875 132.113281 165.367188 133.625 L 165.160156 133.828125 C 164.957031 133.992188 164.589844 134.359375 163.976562 135.011719 C 163.53125 135.5 163 136.195312 162.347656 137.050781 C 162.222656 137.296875 162.183594 137.417969 162.183594 137.417969 C 162.144531 137.542969 162.144531 137.664062 162.101562 137.746094 C 162.144531 137.988281 162.222656 138.722656 162.511719 140.84375 L 162.511719 141.050781 C 162.714844 144.476562 160.308594 145.210938 159.53125 145.375 C 159.328125 145.496094 159.042969 145.496094 158.757812 145.496094 Z M 158.757812 141.457031 L 159.207031 143.375 L 158.839844 141.457031 Z M 158.714844 141.292969 C 158.757812 141.292969 158.757812 141.292969 158.714844 141.292969 Z M 158.390625 104.371094 C 158.347656 104.371094 158.265625 104.371094 158.226562 104.371094 C 157.328125 104.453125 156.636719 104.535156 156.0625 104.660156 C 155.941406 104.699219 155.820312 104.699219 155.695312 104.78125 C 155.777344 104.738281 155.902344 104.738281 155.980469 104.699219 C 157.207031 104.453125 158.347656 104.414062 159.449219 104.496094 C 158.960938 104.371094 158.59375 104.371094 158.390625 104.371094 Z M 158.390625 104.371094 " fill-opacity="1" fill-rule="nonzero"/><g clip-path="url(#ec72660388)"><path fill="#85586f" d="M 65.085938 205.46875 C 90.828125 188.988281 120.9375 181.765625 150.761719 176.910156 C 159.328125 175.523438 167.9375 174.300781 176.542969 173.117188 C 177.929688 172.914062 179.683594 172.097656 179.316406 170.382812 C 178.949219 168.792969 176.625 168.015625 175.199219 168.222656 C 144.191406 172.503906 112.820312 177.03125 83.8125 189.273438 C 75.734375 192.699219 67.902344 196.738281 60.515625 201.46875 C 56.886719 203.796875 62.394531 207.183594 65.085938 205.46875 Z M 65.085938 205.46875 " fill-opacity="1" fill-rule="nonzero"/></g></svg>