<svg xmlns="http://www.w3.org/2000/svg" xmlns:xlink="http://www.w3.org/1999/xlink" width="410" zoomAndPan="magnify" viewBox="0 0 307.5 412.499996" height="550" preserveAspectRatio="xMidYMid meet" version="1.0"><defs><g/><clipPath id="bc4d59ef84"><path d="M 0 0.0859375 L 307 0.0859375 L 307 411.914062 L 0 411.914062 Z M 0 0.0859375 " clip-rule="nonzero"/></clipPath><clipPath id="838b073dcb"><path d="M 95.796875 109.519531 L 244.804688 109.519531 L 244.804688 319.929688 L 95.796875 319.929688 Z M 95.796875 109.519531 " clip-rule="nonzero"/></clipPath><clipPath id="00600b600d"><path d="M 30.699219 37.367188 L 205.871094 37.367188 L 205.871094 269.914062 L 30.699219 269.914062 Z M 30.699219 37.367188 " clip-rule="nonzero"/></clipPath><clipPath id="0b86807c34"><path d="M 30.699219 37.367188 L 205.867188 37.367188 L 205.867188 269.910156 L 30.699219 269.910156 Z M 30.699219 37.367188 " clip-rule="nonzero"/></clipPath><clipPath id="e12d80b6a8"><path d="M 145.203125 226.652344 L 287.472656 226.652344 L 287.472656 368.921875 L 145.203125 368.921875 Z M 145.203125 226.652344 " clip-rule="nonzero"/></clipPath><clipPath id="168aac7535"><path d="M 199 283 L 272 283 L 272 294.871094 L 199 294.871094 Z M 199 283 " clip-rule="nonzero"/></clipPath><clipPath id="67b5e9a9a9"><path d="M 56.886719 89.191406 L 179.683594 89.191406 L 179.683594 211.992188 L 56.886719 211.992188 Z M 56.886719 89.191406 " clip-rule="nonzero"/></clipPath></defs><g clip-path="url(#bc4d59ef84)"><path fill="#ffffff" d="M 0 0.0859375 L 307 0.0859375 L 307 411.914062 L 0 411.914062 Z M 0 0.0859375 " fill-opacity="1" fill-rule="nonzero"/><path fill="#ffffff" d="M 0 0.0859375 L 307 0.0859375 L 307 411.914062 L 0 411.914062 Z M 0 0.0859375 " fill-opacity="1" fill-rule="nonzero"/></g><g clip-path="url(#838b073dcb)"><path fill="#f1bc0d" d="M 243.761719 319.539062 L 97.140625 319.539062 C 96.402344 319.539062 95.804688 318.941406 95.804688 318.203125 L 95.804688 110.855469 C 95.804688 110.117188 96.402344 109.519531 97.140625 109.519531 L 243.761719 109.519531 C 244.5 109.519531 245.097656 110.117188 245.097656 110.855469 L 245.097656 318.203125 C 245.097656 318.941406 244.5 319.539062 243.761719 319.539062 Z M 98.480469 316.867188 L 242.421875 316.867188 L 242.421875 112.195312 L 98.480469 112.195312 Z M 98.480469 316.867188 " fill-opacity="1" fill-rule="nonzero"/></g><g clip-path="url(#00600b600d)"><path fill="#ffffff" d="M 30.699219 37.367188 L 205.871094 37.367188 L 205.871094 270.015625 L 30.699219 270.015625 Z M 30.699219 37.367188 " fill-opacity="1" fill-rule="nonzero"/></g><g clip-path="url(#0b86807c34)"><path stroke-linecap="butt" transform="matrix(0.748782, 0, 0, 0.748782, 30.700994, 37.366221)" fill="none" stroke-linejoin="miter" d="M -0.00237085 0.00129117 L 233.934713 0.00129117 L 233.934713 310.562774 L -0.00237085 310.562774 Z M -0.00237085 0.00129117 " stroke="#85586f" stroke-width="8" stroke-opacity="1" stroke-miterlimit="4"/></g><path fill="#ffffff" d="M 146.152344 227.601562 L 286.328125 227.601562 L 286.328125 367.777344 L 146.152344 367.777344 Z M 146.152344 227.601562 " fill-opacity="1" fill-rule="nonzero"/><g clip-path="url(#e12d80b6a8)"><path fill="#85586f" d="M 286.328125 368.722656 L 146.152344 368.722656 C 145.621094 368.722656 145.203125 368.304688 145.203125 367.777344 L 145.203125 227.601562 C 145.203125 227.070312 145.621094 226.652344 146.152344 226.652344 L 286.328125 226.652344 C 286.855469 226.652344 287.273438 227.070312 287.273438 227.601562 L 287.273438 367.777344 C 287.273438 368.304688 286.855469 368.722656 286.328125 368.722656 Z M 147.097656 366.828125 L 285.378906 366.828125 L 285.378906 228.546875 L 147.097656 228.546875 Z M 147.097656 366.828125 " fill-opacity="1" fill-rule="nonzero"/></g><path fill="#85586f" d="M 163.542969 284.660156 C 164.796875 284.429688 166.394531 284.089844 168.164062 283.691406 L 160.75 283.746094 L 173.582031 282.433594 L 174.664062 282.207031 L 167.363281 282.265625 L 181.167969 280.722656 L 181.964844 280.554688 L 174.722656 280.609375 L 187.039062 279.527344 C 187.324219 279.46875 187.554688 279.414062 187.839844 279.355469 L 180.882812 279.242188 L 190.746094 278.5 L 186.984375 278.15625 L 198.789062 277.644531 C 214.070312 275.820312 230.496094 276.445312 241.503906 285.058594 C 239.960938 284.316406 238.480469 283.574219 236.941406 283.003906 L 224.164062 283.121094 L 235.285156 282.378906 L 221.484375 281.921875 L 231.523438 281.179688 L 216.351562 280.894531 L 226.847656 280.097656 C 226.675781 280.039062 226.503906 280.039062 226.332031 279.984375 L 212.589844 279.867188 L 221.085938 279.242188 C 212.589844 278.441406 203.921875 279.296875 195.195312 281.007812 C 196.277344 283.917969 199.074219 285.914062 203.75 286.941406 C 190.175781 287.738281 178.65625 283.003906 163.542969 284.660156 Z M 163.542969 284.660156 " fill-opacity="1" fill-rule="evenodd"/><g clip-path="url(#168aac7535)"><path fill="#85586f" d="M 253.992188 289.5625 L 248.347656 290.53125 L 255.929688 290.476562 C 256.386719 290.761719 256.785156 291.046875 257.183594 291.332031 L 245.722656 292.757812 L 258.441406 292.644531 C 258.726562 292.984375 258.894531 293.328125 259.125 293.726562 C 258.839844 291.730469 258.554688 291.332031 257.699219 290.363281 C 262.375 291.046875 267.050781 292.585938 271.726562 294.808594 C 258.210938 280.609375 221.65625 289.335938 199.53125 283.691406 C 200.441406 285.058594 203.066406 286.257812 206.773438 287.28125 L 199.1875 287.796875 L 208.824219 287.796875 C 209.453125 287.96875 210.136719 288.082031 210.820312 288.253906 L 204.890625 288.9375 L 214.640625 288.992188 C 214.925781 289.050781 215.269531 289.105469 215.554688 289.164062 L 210.136719 289.960938 L 219.832031 289.847656 C 220.171875 289.90625 220.574219 289.960938 220.972656 290.019531 L 215.269531 290.703125 L 225.304688 290.589844 C 230.496094 291.273438 235.972656 291.84375 241.21875 292.300781 C 242.929688 290.132812 246.121094 288.652344 249.773438 288.652344 C 251.3125 288.878906 252.738281 289.164062 253.992188 289.5625 Z M 253.992188 289.5625 " fill-opacity="1" fill-rule="evenodd"/></g><path fill="#85586f" d="M 176.203125 288.421875 L 164.285156 289.222656 L 174.949219 289.390625 C 173.753906 290.476562 173.011719 291.84375 172.839844 293.328125 C 174.4375 290.648438 178.257812 288.765625 182.707031 288.765625 C 187.152344 288.765625 190.976562 290.648438 192.570312 293.328125 C 192.117188 289.5625 187.894531 286.65625 182.707031 286.65625 C 181.679688 286.65625 180.652344 286.769531 179.683594 286.996094 L 169.589844 287.683594 L 176.773438 288.082031 C 176.546875 288.195312 176.375 288.308594 176.203125 288.421875 Z M 176.203125 288.421875 " fill-opacity="1" fill-rule="evenodd"/><g fill="#f1bc0d" fill-opacity="1"><g transform="translate(185.943246, 306.84581)"><g><path d="M 1.621094 0 L 10.96875 0 C 11.0625 0 11.125 -0.0625 11.125 -0.160156 L 11.125 -1.429688 C 11.125 -1.527344 11.0625 -1.589844 10.96875 -1.589844 L 1.90625 -1.589844 C 1.734375 -1.589844 1.589844 -1.734375 1.589844 -1.90625 L 1.589844 -6.039062 C 1.589844 -6.214844 1.734375 -6.359375 1.90625 -6.359375 L 10.96875 -6.359375 C 11.0625 -6.359375 11.125 -6.421875 11.125 -6.515625 L 11.125 -7.789062 C 11.125 -7.882812 11.0625 -7.949219 10.96875 -7.949219 L 1.621094 -7.949219 C 0.683594 -7.949219 0 -7.265625 0 -6.328125 L 0 -1.621094 C 0 -0.683594 0.683594 0 1.621094 0 Z M 1.621094 0 "/></g></g></g><g fill="#f1bc0d" fill-opacity="1"><g transform="translate(200.247831, 306.84581)"><g><path d="M 0.160156 0 L 1.429688 0 C 1.527344 0 1.589844 -0.0625 1.589844 -0.160156 L 1.589844 -3.179688 L 9.535156 -3.179688 L 9.535156 -0.160156 C 9.535156 -0.0625 9.601562 0 9.695312 0 L 10.96875 0 C 11.0625 0 11.125 -0.0625 11.125 -0.160156 L 11.125 -6.328125 C 11.125 -7.265625 10.441406 -7.949219 9.503906 -7.949219 L 1.621094 -7.949219 C 0.683594 -7.949219 0 -7.265625 0 -6.328125 L 0 -0.160156 C 0 -0.0625 0.0625 0 0.160156 0 Z M 1.589844 -4.769531 L 1.589844 -6.039062 C 1.589844 -6.214844 1.734375 -6.359375 1.90625 -6.359375 L 9.21875 -6.359375 C 9.394531 -6.359375 9.535156 -6.214844 9.535156 -6.039062 L 9.535156 -4.769531 Z M 1.589844 -4.769531 "/></g></g></g><g fill="#f1bc0d" fill-opacity="1"><g transform="translate(214.552417, 306.84581)"><g><path d="M 0.160156 0 L 1.429688 0 C 1.527344 0 1.589844 -0.0625 1.589844 -0.160156 L 1.589844 -3.179688 L 7.597656 -3.179688 L 8.710938 0 L 10.457031 0 L 9.347656 -3.179688 L 9.503906 -3.179688 C 10.441406 -3.179688 11.125 -3.863281 11.125 -4.800781 L 11.125 -6.328125 C 11.125 -7.265625 10.441406 -7.949219 9.503906 -7.949219 L 0.160156 -7.949219 C 0.0625 -7.949219 0 -7.882812 0 -7.789062 L 0 -0.160156 C 0 -0.0625 0.0625 0 0.160156 0 Z M 1.589844 -4.769531 L 1.589844 -6.359375 L 9.21875 -6.359375 C 9.394531 -6.359375 9.535156 -6.214844 9.535156 -6.039062 L 9.535156 -5.085938 C 9.535156 -4.910156 9.394531 -4.769531 9.21875 -4.769531 Z M 1.589844 -4.769531 "/></g></g></g><g fill="#f1bc0d" fill-opacity="1"><g transform="translate(228.857003, 306.84581)"><g><path d="M 0.160156 0 L 1.429688 0 C 1.527344 0 1.589844 -0.0625 1.589844 -0.160156 L 1.589844 -7.789062 C 1.589844 -7.882812 1.527344 -7.949219 1.429688 -7.949219 L 0.160156 -7.949219 C 0.0625 -7.949219 0 -7.882812 0 -7.789062 L 0 -0.160156 C 0 -0.0625 0.0625 0 0.160156 0 Z M 0.160156 0 "/></g></g></g><g fill="#f1bc0d" fill-opacity="1"><g transform="translate(233.625485, 306.84581)"><g><path d="M 0.191406 0 L 1.574219 0 C 1.636719 0 1.699219 -0.046875 1.714844 -0.09375 L 2.796875 -3.179688 L 8.519531 -3.179688 L 9.601562 -0.09375 C 9.617188 -0.046875 9.679688 0 9.742188 0 L 11.125 0 C 11.253906 0 11.347656 -0.109375 11.300781 -0.238281 L 9.996094 -3.972656 L 11.300781 -7.710938 C 11.347656 -7.835938 11.253906 -7.949219 11.125 -7.949219 L 9.742188 -7.949219 C 9.679688 -7.949219 9.617188 -7.898438 9.601562 -7.851562 L 8.519531 -4.769531 L 2.796875 -4.769531 L 1.714844 -7.851562 C 1.699219 -7.898438 1.636719 -7.949219 1.574219 -7.949219 L 0.191406 -7.949219 C 0.0625 -7.949219 -0.03125 -7.835938 0.015625 -7.710938 L 1.320312 -3.972656 L 0.015625 -0.238281 C -0.03125 -0.109375 0.0625 0 0.191406 0 Z M 0.191406 0 "/></g></g></g><g fill="#85586f" fill-opacity="1"><g transform="translate(177.613968, 316.932708)"><g><path d="M 2.625 -0.4375 L 0.96875 -0.4375 C 0.925781 -0.4375 0.90625 -0.457031 0.90625 -0.5 L 0.90625 -3.578125 C 0.90625 -3.617188 0.925781 -3.640625 0.96875 -3.640625 L 2.625 -3.640625 L 2.625 -4.078125 L 1.1875 -4.078125 C 0.78125 -4.078125 0.53125 -3.953125 0.4375 -3.703125 C 0.40625 -3.609375 0.390625 -3.492188 0.390625 -3.359375 L 0.390625 -0.71875 C 0.390625 -0.34375 0.539062 -0.113281 0.84375 -0.03125 C 0.9375 -0.0078125 1.050781 0 1.1875 0 L 2.625 0 Z M 2.625 -0.4375 "/></g></g></g><g fill="#85586f" fill-opacity="1"><g transform="translate(184.323445, 316.932708)"><g><path d="M 3.296875 0 L 2.296875 -4.078125 L 1.765625 -4.09375 C 1.503906 -4.09375 1.332031 -4.039062 1.25 -3.9375 C 1.1875 -3.851562 1.125 -3.707031 1.0625 -3.5 L 0.078125 0 L 0.546875 0 L 0.828125 -1.078125 L 2.53125 -1.078125 L 2.8125 0 Z M 1.515625 -3.59375 C 1.535156 -3.632812 1.5625 -3.65625 1.59375 -3.65625 L 1.921875 -3.65625 L 2.453125 -1.5 L 0.953125 -1.5 Z M 1.515625 -3.59375 "/></g></g></g><g fill="#85586f" fill-opacity="1"><g transform="translate(191.643223, 316.932708)"><g><path d="M 0.96875 0 L 0.96875 -1.671875 L 2 -1.671875 C 2.050781 -1.671875 2.085938 -1.648438 2.109375 -1.609375 L 2.65625 0 L 3.15625 0 L 2.6875 -1.34375 C 2.625 -1.519531 2.550781 -1.644531 2.46875 -1.71875 C 2.84375 -1.800781 3.03125 -2.050781 3.03125 -2.46875 L 3.03125 -3.328125 C 3.03125 -3.847656 2.75 -4.109375 2.1875 -4.109375 L 0.46875 -4.078125 L 0.46875 0 Z M 2.453125 -3.671875 C 2.492188 -3.660156 2.519531 -3.632812 2.53125 -3.59375 L 2.53125 -2.171875 C 2.519531 -2.117188 2.492188 -2.09375 2.453125 -2.09375 L 0.96875 -2.09375 L 0.96875 -3.671875 Z M 2.453125 -3.671875 "/></g></g></g><g fill="#85586f" fill-opacity="1"><g transform="translate(198.988697, 316.932708)"><g/></g></g><g fill="#85586f" fill-opacity="1"><g transform="translate(204.220604, 316.932708)"><g><path d="M 0.875 -2.28125 C 0.820312 -2.28125 0.796875 -2.300781 0.796875 -2.34375 L 0.796875 -3.578125 C 0.796875 -3.617188 0.820312 -3.644531 0.875 -3.65625 L 2.671875 -3.65625 L 2.671875 -4.078125 L 1.15625 -4.109375 C 0.664062 -4.109375 0.378906 -3.910156 0.296875 -3.515625 C 0.285156 -3.453125 0.28125 -3.382812 0.28125 -3.3125 L 0.28125 -2.5625 C 0.28125 -2.164062 0.457031 -1.929688 0.8125 -1.859375 C 0.90625 -1.835938 1.007812 -1.828125 1.125 -1.828125 L 2.203125 -1.828125 C 2.253906 -1.816406 2.28125 -1.789062 2.28125 -1.75 L 2.28125 -0.5 C 2.269531 -0.457031 2.242188 -0.4375 2.203125 -0.4375 L 0.328125 -0.4375 L 0.328125 0 L 1.9375 0.03125 C 2.5 0.03125 2.78125 -0.234375 2.78125 -0.765625 L 2.78125 -1.515625 C 2.78125 -2.015625 2.492188 -2.269531 1.921875 -2.28125 Z M 0.875 -2.28125 "/></g></g></g><g fill="#85586f" fill-opacity="1"><g transform="translate(211.206322, 316.932708)"><g><path d="M 2.734375 0 L 2.734375 -0.4375 L 0.953125 -0.4375 L 0.953125 -1.859375 L 2.59375 -1.859375 L 2.59375 -2.28125 L 0.953125 -2.28125 L 0.953125 -3.65625 L 2.703125 -3.65625 L 2.703125 -4.078125 L 0.46875 -4.078125 L 0.46875 0 Z M 2.734375 0 "/></g></g></g><g fill="#85586f" fill-opacity="1"><g transform="translate(218.102101, 316.932708)"><g><path d="M 0.96875 0 L 0.96875 -1.671875 L 2 -1.671875 C 2.050781 -1.671875 2.085938 -1.648438 2.109375 -1.609375 L 2.65625 0 L 3.15625 0 L 2.6875 -1.34375 C 2.625 -1.519531 2.550781 -1.644531 2.46875 -1.71875 C 2.84375 -1.800781 3.03125 -2.050781 3.03125 -2.46875 L 3.03125 -3.328125 C 3.03125 -3.847656 2.75 -4.109375 2.1875 -4.109375 L 0.46875 -4.078125 L 0.46875 0 Z M 2.453125 -3.671875 C 2.492188 -3.660156 2.519531 -3.632812 2.53125 -3.59375 L 2.53125 -2.171875 C 2.519531 -2.117188 2.492188 -2.09375 2.453125 -2.09375 L 0.96875 -2.09375 L 0.96875 -3.671875 Z M 2.453125 -3.671875 "/></g></g></g><g fill="#85586f" fill-opacity="1"><g transform="translate(225.447576, 316.932708)"><g><path d="M 2.28125 -0.609375 L 3.234375 -4.078125 L 2.765625 -4.078125 L 1.8125 -0.484375 C 1.789062 -0.453125 1.769531 -0.4375 1.75 -0.4375 L 1.453125 -0.4375 L 0.546875 -4.078125 L 0.0625 -4.078125 L 1.078125 0 L 1.59375 0 C 1.84375 0.0078125 2.007812 -0.03125 2.09375 -0.125 C 2.15625 -0.207031 2.21875 -0.367188 2.28125 -0.609375 Z M 2.28125 -0.609375 "/></g></g></g><g fill="#85586f" fill-opacity="1"><g transform="translate(232.683839, 316.932708)"><g><path d="M 1.046875 0 L 1.046875 -4.078125 L 0.546875 -4.078125 L 0.546875 0 Z M 1.046875 0 "/></g></g></g><g fill="#85586f" fill-opacity="1"><g transform="translate(238.224111, 316.932708)"><g><path d="M 2.625 -0.4375 L 0.96875 -0.4375 C 0.925781 -0.4375 0.90625 -0.457031 0.90625 -0.5 L 0.90625 -3.578125 C 0.90625 -3.617188 0.925781 -3.640625 0.96875 -3.640625 L 2.625 -3.640625 L 2.625 -4.078125 L 1.1875 -4.078125 C 0.78125 -4.078125 0.53125 -3.953125 0.4375 -3.703125 C 0.40625 -3.609375 0.390625 -3.492188 0.390625 -3.359375 L 0.390625 -0.71875 C 0.390625 -0.34375 0.539062 -0.113281 0.84375 -0.03125 C 0.9375 -0.0078125 1.050781 0 1.1875 0 L 2.625 0 Z M 2.625 -0.4375 "/></g></g></g><g fill="#85586f" fill-opacity="1"><g transform="translate(244.933591, 316.932708)"><g><path d="M 2.734375 0 L 2.734375 -0.4375 L 0.953125 -0.4375 L 0.953125 -1.859375 L 2.59375 -1.859375 L 2.59375 -2.28125 L 0.953125 -2.28125 L 0.953125 -3.65625 L 2.703125 -3.65625 L 2.703125 -4.078125 L 0.46875 -4.078125 L 0.46875 0 Z M 2.734375 0 "/></g></g></g><g fill="#85586f" fill-opacity="1"><g transform="translate(251.829373, 316.932708)"><g><path d="M 0.875 -2.28125 C 0.820312 -2.28125 0.796875 -2.300781 0.796875 -2.34375 L 0.796875 -3.578125 C 0.796875 -3.617188 0.820312 -3.644531 0.875 -3.65625 L 2.671875 -3.65625 L 2.671875 -4.078125 L 1.15625 -4.109375 C 0.664062 -4.109375 0.378906 -3.910156 0.296875 -3.515625 C 0.285156 -3.453125 0.28125 -3.382812 0.28125 -3.3125 L 0.28125 -2.5625 C 0.28125 -2.164062 0.457031 -1.929688 0.8125 -1.859375 C 0.90625 -1.835938 1.007812 -1.828125 1.125 -1.828125 L 2.203125 -1.828125 C 2.253906 -1.816406 2.28125 -1.789062 2.28125 -1.75 L 2.28125 -0.5 C 2.269531 -0.457031 2.242188 -0.4375 2.203125 -0.4375 L 0.328125 -0.4375 L 0.328125 0 L 1.9375 0.03125 C 2.5 0.03125 2.78125 -0.234375 2.78125 -0.765625 L 2.78125 -1.515625 C 2.78125 -2.015625 2.492188 -2.269531 1.921875 -2.28125 Z M 0.875 -2.28125 "/></g></g></g><g clip-path="url(#67b5e9a9a9)"><path fill="#85586f" d="M 118.285156 89.191406 C 84.429688 89.191406 56.886719 116.734375 56.886719 150.589844 C 56.886719 184.445312 84.429688 211.992188 118.285156 211.992188 C 152.140625 211.992188 179.683594 184.445312 179.683594 150.589844 C 179.683594 116.734375 152.140625 89.191406 118.285156 89.191406 Z M 83.800781 191.734375 C 84.375 173.1875 99.601562 158.265625 118.285156 158.265625 C 136.96875 158.265625 152.199219 173.1875 152.769531 191.734375 C 143.429688 199.574219 131.40625 204.316406 118.285156 204.316406 C 105.164062 204.316406 93.140625 199.574219 83.800781 191.734375 Z M 99.097656 131.402344 C 99.097656 120.824219 107.707031 112.214844 118.285156 112.214844 C 128.867188 112.214844 137.472656 120.824219 137.472656 131.402344 C 137.472656 141.984375 128.867188 150.589844 118.285156 150.589844 C 107.707031 150.589844 99.097656 141.984375 99.097656 131.402344 Z M 159.707031 184.761719 C 156.929688 170.417969 146.867188 158.675781 133.539062 153.484375 C 140.542969 148.632812 145.148438 140.546875 145.148438 131.402344 C 145.148438 116.59375 133.09375 104.539062 118.285156 104.539062 C 103.476562 104.539062 91.421875 116.59375 91.421875 131.402344 C 91.421875 140.546875 96.027344 148.632812 103.03125 153.488281 C 89.703125 158.679688 79.640625 170.421875 76.859375 184.765625 C 69.179688 175.472656 64.558594 163.5625 64.558594 150.589844 C 64.558594 120.964844 88.660156 96.867188 118.285156 96.867188 C 147.910156 96.867188 172.011719 120.964844 172.011719 150.589844 C 172.011719 163.5625 167.390625 175.472656 159.707031 184.761719 Z M 159.707031 184.761719 " fill-opacity="1" fill-rule="nonzero"/></g></svg>